<svg class="svg-icon" style="width: 1em; height: 1em;vertical-align: middle;fill: currentColor;overflow: hidden;" viewBox="0 0 1024 1024" version="1.1" xmlns="http://www.w3.org/2000/svg"><path d="M769.841131 507.345455a31.340606 31.340606 0 0 0-44.187151 0 30.947556 30.947556 0 0 0 0 43.959596l179.613737 178.424242H43.618263a31.030303 31.030303 0 1 0 0 62.060606h861.390868L725.385051 970.472727a30.947556 30.947556 0 0 0 0 43.959596c6.237091 6.206061 14.03604 9.050505 22.093575 9.050505 8.067879 0 16.115071-3.10303 22.093576-9.050505l232.892768-231.692929a30.616566 30.616566 0 0 0 9.102222-21.979798c0-8.274747-3.382303-16.290909-9.102222-21.979798L769.861818 507.345455zM254.158869 516.654545c6.237091 6.206061 14.025697 9.050505 22.093575 9.050506 8.057535 0 16.115071-3.10303 22.093576-9.050506a30.947556 30.947556 0 0 0 0-43.959596L118.732283 294.012121h861.401212a31.030303 31.030303 0 0 0 31.185454-31.030303c0-17.066667-14.03604-31.030303-31.195797-31.030303H118.990869L298.614949 53.268687a30.947556 30.947556 0 0 0 0-43.959596 31.340606 31.340606 0 0 0-44.187151 0L21.514343 241.00202a30.947556 30.947556 0 0 0 0 43.959596l232.623839 231.692929z" fill="#2E323F" /></svg>